<svg xmlns="http://www.w3.org/2000/svg" viewBox="0 0 24 24" width="24" height="24" class="cui5-icon cui5-icon--color-undefined undefined"><path d="M8 3c0-.55.45-1 1-1h6c.55 0 1 .45 1 1v2c0 .55-.45 1-1 1H9c-.55 0-1-.45-1-1V3ZM6.75 3H5.5c-1.1 0-2 .9-2 2v15c0 1.1.9 2 2 2h13c1.1 0 2-.9 2-2V5c0-1.1-.9-2-2-2h-1.25v2c0 1.1-.9 2-2 2h-6.5c-1.1 0-2-.9-2-2V3Zm2.66 9.72 1.59 1.6 4.42-4.43c.3-.3.77-.3 1.06 0 .3.3.3.77 0 1.06l-4.95 4.95c-.14.14-.33.22-.53.22s-.39-.08-.53-.22l-2.12-2.12c-.3-.3-.3-.77 0-1.06.3-.3.77-.3 1.06 0Z"></path></svg>