<svg xmlns="http://www.w3.org/2000/svg" viewBox="0 0 24 24" width="24" height="24" class="cui5-icon cui5-icon--color-undefined undefined"><path d="M12 16c2.2 0 4-1.8 4-4s-1.8-4-4-4-4 1.8-4 4 1.8 4 4 4Z"></path><path d="M11.25 2.53c-4.65.36-8.36 4.07-8.72 8.72H1c-.41 0-.75.34-.75.75s.34.75.75.75h1.53c.36 4.65 4.07 8.36 8.72 8.72V23c0 .41.34.75.75.75s.75-.34.75-.75v-1.53c4.65-.36 8.36-4.07 8.72-8.72H23c.41 0 .75-.34.75-.75s-.34-.75-.75-.75h-1.53c-.36-4.65-4.07-8.36-8.72-8.72V1c0-.41-.34-.75-.75-.75s-.75.34-.75.75v1.53ZM20 12c0 4.42-3.58 8-8 8s-8-3.58-8-8 3.58-8 8-8 8 3.58 8 8Z"></path></svg>