<svg width="54" height="21" viewBox="0 0 54 21" fill="none" xmlns="http://www.w3.org/2000/svg">
<path d="M0.822005 17.3799H0V12.0692H5.22472C5.44564 12.0692 5.65647 12.1125 5.85833 12.1993C6.05906 12.2861 6.23513 12.4048 6.38652 12.5566C6.53679 12.7073 6.6579 12.8831 6.74874 13.0829C6.83957 13.2827 6.88443 13.495 6.88443 13.7199C6.88443 13.9448 6.83733 14.1652 6.74537 14.3649C6.6523 14.5647 6.52782 14.7394 6.37194 14.8901C6.21606 15.0408 6.03551 15.1584 5.82917 15.2428C5.62283 15.3273 5.40976 15.3696 5.18884 15.3696H0.822005V17.3799ZM5.20117 14.5476C5.31668 14.5476 5.42658 14.5259 5.52863 14.4825C5.6318 14.4391 5.72151 14.3798 5.80001 14.3056C5.87739 14.2314 5.94243 14.1446 5.99178 14.0441C6.04224 13.9448 6.06915 13.8352 6.07476 13.7176C6.07028 13.6046 6.04224 13.4985 5.99178 13.3991C5.94131 13.2998 5.87627 13.2119 5.79553 13.1377C5.71478 13.0635 5.62171 13.0041 5.51629 12.9608C5.41088 12.9174 5.29986 12.8957 5.18435 12.8957H0.822005V14.5453H5.20229L5.20117 14.5476Z" fill="white"/>
<path d="M9.58144 13.2964C9.46033 13.4242 9.365 13.5704 9.29548 13.7336C9.22483 13.898 9.19006 14.0738 9.19006 14.2633V14.3021H14.8443V15.1469H9.19006V15.1858C9.19006 15.3696 9.22483 15.5442 9.29548 15.7075C9.36613 15.8719 9.46257 16.0146 9.58593 16.1367C9.70928 16.2589 9.85282 16.3571 10.0154 16.4278C10.1792 16.4998 10.3507 16.5351 10.5313 16.5351H14.8432V17.3799H10.5313C10.2296 17.3799 9.94702 17.3217 9.68349 17.203C9.41995 17.0843 9.19006 16.9267 8.99381 16.7269C8.79756 16.5272 8.64281 16.2931 8.53066 16.0248C8.41852 15.7566 8.36133 15.4712 8.36133 15.1686V14.2633C8.36133 13.9562 8.41852 13.6697 8.53515 13.4037C8.65066 13.1377 8.80653 12.9048 9.00278 12.705C9.19903 12.5052 9.42893 12.3477 9.69246 12.2335C9.956 12.1194 10.2364 12.0612 10.5335 12.0612H14.8454V12.898H10.5335C10.3429 12.898 10.1668 12.9334 10.0053 13.0053C9.84385 13.0772 9.70367 13.1742 9.58256 13.2964H9.58144Z" fill="white"/>
<path d="M22.4654 12.7062C22.6616 12.9105 22.8175 13.1457 22.933 13.4117C23.0485 13.6777 23.1068 13.9619 23.1068 14.2633V17.3788H22.2781V15.0693H17.1824V17.3788H16.3604V14.2633C16.3604 13.9562 16.4175 13.6697 16.5342 13.4037C16.6497 13.1377 16.8056 12.9048 17.0018 12.705C17.1981 12.5052 17.4268 12.3477 17.6881 12.2335C17.9494 12.1182 18.2286 12.0612 18.5247 12.0612H20.9369C21.2329 12.0612 21.5122 12.1182 21.7735 12.2335C22.0348 12.3488 22.2658 12.5064 22.4665 12.705L22.4654 12.7062ZM18.5079 12.898C18.3318 12.898 18.1647 12.9334 18.0066 13.0053C17.8485 13.0772 17.7094 13.1731 17.5883 13.293C17.4672 13.4128 17.3708 13.5544 17.2979 13.7154C17.225 13.8763 17.1857 14.0464 17.1812 14.2257H22.277C22.2714 14.0464 22.2333 13.8763 22.1604 13.7154C22.0875 13.5544 21.991 13.414 21.8699 13.293C21.7488 13.1731 21.6086 13.0772 21.4483 13.0053C21.2868 12.9334 21.1163 12.898 20.9358 12.898H18.5079Z" fill="white"/>
<path d="M30.6756 13.9037C30.5096 14.2154 30.2909 14.4711 30.0196 14.6709C30.2909 14.8752 30.5096 15.1355 30.6756 15.4494C30.8416 15.7645 30.9246 16.1036 30.9246 16.4666V17.3799H30.0947V16.4666C30.0947 16.2771 30.0588 16.099 29.9859 15.9335C29.913 15.7668 29.8166 15.623 29.6955 15.4997C29.5744 15.3764 29.4331 15.2793 29.2693 15.2086C29.1056 15.1366 28.9307 15.1013 28.7456 15.1013H25.2625V17.3811H24.4326V12.0018H25.2625V14.2508H28.7456C28.9318 14.2508 29.1056 14.2154 29.2693 14.1434C29.4319 14.0715 29.5755 13.9745 29.6988 13.8523C29.8222 13.729 29.9186 13.5852 29.9893 13.4185C30.0599 13.2518 30.0947 13.0749 30.0947 12.8854V12.0029H30.9246V12.8854C30.9246 13.2541 30.8416 13.5943 30.6756 13.906V13.9037Z" fill="white"/>
<path d="M53.7513 13.9037C53.5853 14.2154 53.3666 14.4711 53.0952 14.6709C53.3666 14.8752 53.5853 15.1355 53.7513 15.4494C53.9172 15.7645 54.0002 16.1036 54.0002 16.4666V17.3799H53.1704V16.4666C53.1704 16.2771 53.1345 16.099 53.0616 15.9335C52.9887 15.7668 52.8923 15.623 52.7712 15.4997C52.65 15.3764 52.5087 15.2793 52.345 15.2086C52.1813 15.1366 52.0063 15.1013 51.8213 15.1013H48.3382V17.3811H47.5083V12.0018H48.3382V14.2508H51.8213C52.0075 14.2508 52.1813 14.2154 52.345 14.1434C52.5076 14.0715 52.6512 13.9745 52.7745 13.8523C52.8979 13.729 52.9943 13.5852 53.065 13.4185C53.1356 13.2518 53.1704 13.0749 53.1704 12.8854V12.0029H54.0002V12.8854C54.0002 13.2541 53.9172 13.5943 53.7513 13.906V13.9037Z" fill="white"/>
<path d="M38.9449 12.898H36.1256V17.3799H35.3036V12.898H32.4844V12.0612H38.9449V12.898Z" fill="white"/>
<path d="M40.8212 13.2964C40.7001 13.4242 40.6047 13.5704 40.5352 13.7336C40.4646 13.898 40.4298 14.0738 40.4298 14.2633V14.3021H46.084V15.1469H40.4298V15.1858C40.4298 15.3696 40.4646 15.5442 40.5352 15.7075C40.6059 15.8719 40.7023 16.0146 40.8257 16.1367C40.949 16.2589 41.0926 16.3571 41.2552 16.4278C41.4178 16.4998 41.5905 16.5351 41.771 16.5351H46.0829V17.3799H41.771C41.4694 17.3799 41.1868 17.3217 40.9232 17.203C40.6597 17.0843 40.4298 16.9267 40.2336 16.7269C40.0373 16.5272 39.8826 16.2931 39.7704 16.0248C39.6571 15.7566 39.6011 15.4712 39.6011 15.1686V14.2633C39.6011 13.9562 39.6583 13.6697 39.7749 13.4037C39.8904 13.1377 40.0463 12.9048 40.2425 12.705C40.4388 12.5052 40.6687 12.3477 40.9322 12.2335C41.1957 12.1194 41.4761 12.0612 41.7733 12.0612H46.0852V12.898H41.7733C41.5826 12.898 41.4066 12.9334 41.2451 13.0053C41.0847 13.0772 40.9434 13.1742 40.8234 13.2964H40.8212Z" fill="white"/>
<path d="M8.09243 20.2968C8.06551 20.3253 8.03411 20.3493 7.99935 20.3687C7.96458 20.3881 7.92758 20.4041 7.88945 20.4155C7.92197 20.46 7.95673 20.5068 7.99262 20.5559C8.02851 20.605 8.06551 20.6541 8.1014 20.7043C8.13841 20.7534 8.17429 20.8025 8.20905 20.8516C8.24382 20.8995 8.27746 20.9441 8.30886 20.9863H8.01617L7.61358 20.4383H6.49664V20.9863H6.26562V19.4908H7.75376C7.85244 19.4908 7.94216 19.517 8.02066 19.5684C8.08682 19.6107 8.13953 19.6655 8.1799 19.7351C8.21915 19.8047 8.23933 19.8812 8.23933 19.9623C8.23933 20.0285 8.227 20.0901 8.20121 20.1461C8.17541 20.2032 8.13953 20.2534 8.09355 20.2979V20.2956L8.09243 20.2968ZM6.49664 20.1997H7.75936C7.79189 20.1997 7.82328 20.194 7.85356 20.1815C7.88384 20.1689 7.91076 20.1518 7.93318 20.1312C7.95561 20.1095 7.97356 20.0844 7.98701 20.0559C8.00047 20.0273 8.0072 19.9965 8.0072 19.9634C8.0072 19.9303 8.00047 19.8995 7.98589 19.8709C7.97131 19.8424 7.95337 19.8173 7.92982 19.7956C7.90627 19.7739 7.87936 19.7568 7.84908 19.7454C7.8188 19.7339 7.78628 19.7271 7.75263 19.7271H6.49552V20.202L6.49664 20.1997Z" fill="white"/>
<path d="M9.17368 20.9852C9.08845 20.9852 9.00995 20.9692 8.93481 20.9361C8.8608 20.9041 8.79576 20.8596 8.74081 20.8037C8.68586 20.7477 8.64212 20.6815 8.61072 20.6062C8.57932 20.5308 8.5625 20.4498 8.5625 20.363V20.1084C8.5625 20.0239 8.5782 19.9429 8.61072 19.8675C8.64212 19.7922 8.68586 19.726 8.74081 19.67C8.79576 19.6141 8.8608 19.5696 8.93481 19.5376C9.00883 19.5056 9.08845 19.4885 9.17368 19.4885H10.2031C10.2884 19.4885 10.3669 19.5045 10.442 19.5376C10.516 19.5696 10.5811 19.6141 10.636 19.67C10.691 19.726 10.7347 19.7922 10.7661 19.8675C10.7975 19.9429 10.8132 20.0228 10.8132 20.1084V20.363C10.8132 20.4498 10.7975 20.5297 10.7661 20.6062C10.7347 20.6827 10.691 20.7477 10.636 20.8037C10.5811 20.8596 10.516 20.9041 10.442 20.9361C10.368 20.9681 10.2884 20.9852 10.2031 20.9852H9.17368ZM8.79576 20.363C8.79576 20.4167 8.80585 20.4657 8.82491 20.5126C8.8451 20.5594 8.87201 20.6005 8.90566 20.6347C8.9393 20.669 8.97967 20.6964 9.02565 20.7169C9.07163 20.7375 9.12097 20.7466 9.17256 20.7466H10.202C10.2547 20.7466 10.303 20.7363 10.3489 20.7169C10.3949 20.6964 10.4353 20.669 10.47 20.6347C10.5048 20.6005 10.5317 20.5594 10.5519 20.5126C10.5721 20.4657 10.5811 20.4155 10.5811 20.363V20.1084C10.5811 20.057 10.571 20.0068 10.5519 19.96C10.5317 19.9132 10.5048 19.8721 10.47 19.8367C10.4353 19.8013 10.3949 19.7739 10.3489 19.7534C10.303 19.7328 10.2536 19.7237 10.202 19.7237H9.17256C9.11985 19.7237 9.07163 19.734 9.02565 19.7534C8.97967 19.7739 8.9393 19.8013 8.90566 19.8367C8.87201 19.8721 8.8451 19.9132 8.82491 19.96C8.80473 20.0068 8.79576 20.0559 8.79576 20.1084V20.363Z" fill="white"/>
<path d="M11.8177 20.9852C11.7325 20.9852 11.654 20.9692 11.5789 20.9361C11.5048 20.9041 11.4398 20.8596 11.3848 20.8037C11.3299 20.7477 11.2862 20.6815 11.2548 20.6062C11.2234 20.5308 11.2065 20.4498 11.2065 20.363V20.1084C11.2065 20.0239 11.2222 19.9429 11.2548 19.8675C11.2862 19.7922 11.3299 19.726 11.3848 19.67C11.4398 19.6141 11.5048 19.5696 11.5789 19.5376C11.6529 19.5056 11.7325 19.4885 11.8177 19.4885H12.8472C12.9324 19.4885 13.0109 19.5045 13.0861 19.5376C13.1601 19.5696 13.2251 19.6141 13.2801 19.67C13.335 19.726 13.3787 19.7922 13.4101 19.8675C13.4415 19.9429 13.4572 20.0228 13.4572 20.1084V20.363C13.4572 20.4498 13.4415 20.5297 13.4101 20.6062C13.3787 20.6827 13.335 20.7477 13.2801 20.8037C13.2251 20.8596 13.1601 20.9041 13.0861 20.9361C13.012 20.9681 12.9324 20.9852 12.8472 20.9852H11.8177ZM11.4409 20.363C11.4409 20.4167 11.451 20.4657 11.4701 20.5126C11.4903 20.5594 11.5172 20.6005 11.5508 20.6347C11.5845 20.669 11.6248 20.6964 11.6708 20.7169C11.7168 20.7375 11.7661 20.7466 11.8177 20.7466H12.8472C12.8999 20.7466 12.9481 20.7363 12.9941 20.7169C13.0401 20.6964 13.0804 20.669 13.1152 20.6347C13.15 20.6005 13.1769 20.5594 13.1971 20.5126C13.2173 20.4657 13.2262 20.4155 13.2262 20.363V20.1084C13.2262 20.057 13.2161 20.0068 13.1971 19.96C13.1769 19.9132 13.15 19.8721 13.1152 19.8367C13.0804 19.8013 13.0401 19.7739 12.9941 19.7534C12.9481 19.7328 12.8988 19.7237 12.8472 19.7237H11.8177C11.765 19.7237 11.7168 19.734 11.6708 19.7534C11.6248 19.7739 11.5845 19.8013 11.5508 19.8367C11.5172 19.8721 11.4903 19.9132 11.4701 19.96C11.4499 20.0068 11.4409 20.0559 11.4409 20.1084V20.363Z" fill="white"/>
<path d="M14.1908 19.839C14.1572 19.8732 14.1303 19.9143 14.1101 19.9612C14.0899 20.008 14.0809 20.0582 14.0809 20.1107V20.1255H15.5791V20.3607H14.0809V20.984H13.8477V20.1107C13.8477 20.0239 13.8634 19.944 13.8948 19.8687C13.9262 19.7945 13.9699 19.7283 14.0248 19.6723C14.0809 19.6152 14.146 19.5696 14.22 19.5376C14.2929 19.5056 14.3725 19.4885 14.4577 19.4885H15.6677V19.7237H14.4577C14.4039 19.7237 14.3545 19.734 14.3097 19.7545C14.2648 19.7751 14.2245 19.8036 14.1908 19.8379V19.839Z" fill="white"/>
<path d="M16.0098 20.9852V19.4897H16.243V20.9852H16.0098Z" fill="white"/>
<path d="M18.0374 20.9681C18.0172 20.9601 17.9993 20.9486 17.9825 20.9361C17.9656 20.9235 17.9477 20.9064 17.9297 20.8847C17.8546 20.7968 17.7772 20.7043 17.6954 20.6062C17.6146 20.508 17.5316 20.4098 17.4498 20.3105C17.3668 20.2112 17.2849 20.113 17.2042 20.016C17.1234 19.9189 17.0461 19.8253 16.9721 19.7363C16.9552 19.7191 16.9339 19.71 16.9081 19.71C16.8857 19.71 16.8655 19.7157 16.8476 19.7271C16.8296 19.7385 16.8207 19.7568 16.8184 19.7808V20.984H16.5874V19.7625L16.5896 19.7557C16.5919 19.7111 16.6031 19.6712 16.6222 19.6347C16.6412 19.5993 16.6659 19.5684 16.6962 19.5445C16.7265 19.5205 16.7601 19.5011 16.7982 19.4885C16.8352 19.476 16.8734 19.4691 16.9115 19.4691C16.9564 19.4691 17.0001 19.4782 17.0416 19.4965C17.0831 19.5148 17.1201 19.5445 17.1504 19.5856C17.3096 19.7774 17.4688 19.968 17.627 20.1575C17.7851 20.347 17.9443 20.5388 18.1058 20.7317C18.1125 20.7386 18.1226 20.7454 18.135 20.7512C18.1473 20.7569 18.1585 20.7603 18.1697 20.7603C18.1899 20.7603 18.2079 20.7534 18.2247 20.7409C18.2415 20.7283 18.2527 20.7112 18.2561 20.6895V19.4851H18.4893V20.7066C18.4849 20.7512 18.4736 20.7911 18.4535 20.8276C18.4333 20.863 18.4097 20.895 18.3806 20.9201C18.3514 20.9464 18.3189 20.9658 18.2819 20.9795C18.2449 20.9932 18.2067 21 18.1675 21C18.1462 21 18.1238 20.9977 18.1002 20.992C18.0767 20.9875 18.0553 20.9783 18.0352 20.9669L18.0374 20.9681Z" fill="white"/>
<path d="M19.4467 20.9852C19.3637 20.9852 19.2852 20.9692 19.2112 20.9361C19.1372 20.9041 19.0732 20.8596 19.0183 20.8037C18.9633 20.7477 18.9196 20.6815 18.8871 20.6062C18.8546 20.5308 18.8389 20.4498 18.8389 20.363V20.1084C18.8389 20.024 18.8546 19.944 18.886 19.8687C18.9174 19.7945 18.9611 19.7283 19.0161 19.6723C19.071 19.6164 19.1349 19.5719 19.2089 19.5388C19.283 19.5057 19.3615 19.4897 19.4467 19.4897H20.3281V19.7249H19.4467C19.3962 19.7249 19.3469 19.7351 19.302 19.7545C19.256 19.7751 19.2157 19.8025 19.182 19.8367C19.1484 19.871 19.1215 19.9109 19.1002 19.9577C19.08 20.0034 19.0699 20.0525 19.0699 20.105V20.3642C19.0699 20.4155 19.08 20.4658 19.099 20.5126C19.1192 20.5594 19.1461 20.6005 19.1798 20.6359C19.2134 20.6713 19.2527 20.6987 19.2987 20.7192C19.3435 20.7398 19.3917 20.7489 19.4433 20.7489H20.1263C20.1767 20.7489 20.2261 20.7386 20.2709 20.7192C20.3169 20.6987 20.3573 20.6713 20.3909 20.637C20.4246 20.6028 20.4515 20.5628 20.4728 20.516C20.493 20.4703 20.5031 20.4212 20.5031 20.3687V20.3516H19.8695V20.1141H20.7363V20.3642C20.7363 20.4486 20.7206 20.5297 20.6881 20.605C20.6567 20.6804 20.613 20.7466 20.558 20.8025C20.5031 20.8585 20.438 20.903 20.364 20.9361C20.29 20.9692 20.2104 20.9852 20.1251 20.9852H19.4467Z" fill="white"/>
<path d="M23.9269 20.1084V20.3413H23.7295V20.984H22.3243C22.2571 20.984 22.1954 20.9726 22.1404 20.9498C22.0855 20.927 22.0384 20.895 21.998 20.8562C21.9588 20.8162 21.9274 20.7706 21.9061 20.7169C21.8836 20.6632 21.8735 20.6073 21.8735 20.5468C21.8735 20.4863 21.8859 20.4292 21.9105 20.3744C21.9352 20.3196 21.97 20.2728 22.0137 20.2317C21.9689 20.1963 21.9341 20.1507 21.9094 20.0981C21.8859 20.0445 21.8735 19.9886 21.8735 19.9303C21.8735 19.8493 21.8892 19.7831 21.9206 19.7305C21.952 19.678 21.9902 19.6358 22.0373 19.6038C22.0844 19.5719 22.1337 19.5502 22.1864 19.5376C22.2391 19.5251 22.2873 19.5193 22.3322 19.5193H23.7205V19.7522H22.3322C22.3042 19.7522 22.2761 19.7557 22.2492 19.7637C22.2223 19.7716 22.1976 19.7831 22.1752 19.7979C22.1528 19.8127 22.1348 19.8322 22.1214 19.8538C22.1079 19.8767 22.1012 19.9018 22.1012 19.9303C22.1012 19.9577 22.1079 19.9817 22.1214 20.0034C22.1348 20.0251 22.1516 20.0433 22.173 20.0582C22.1943 20.073 22.2178 20.0856 22.2447 20.0936C22.2716 20.1027 22.2974 20.1061 22.3232 20.1061H23.928L23.9269 20.1084ZM23.5007 20.3436H22.3199C22.2907 20.3436 22.2615 20.3493 22.2346 20.3596C22.2077 20.3699 22.1842 20.3847 22.1651 20.4041C22.1449 20.4224 22.1292 20.4452 22.1169 20.4703C22.1045 20.4954 22.0989 20.5217 22.0989 20.5491C22.0989 20.5594 22.1023 20.5753 22.109 20.5993C22.1158 20.6233 22.127 20.645 22.1438 20.6678C22.1606 20.6906 22.183 20.7112 22.2111 20.7283C22.2391 20.7454 22.275 20.7546 22.3187 20.7546H23.4996V20.3447L23.5007 20.3436Z" fill="white"/>
<path d="M26.9088 20.2968C26.8819 20.3253 26.8505 20.3493 26.8158 20.3687C26.781 20.3881 26.744 20.4041 26.7059 20.4155C26.7384 20.46 26.7731 20.5068 26.809 20.5559C26.8449 20.605 26.8819 20.6541 26.9178 20.7043C26.9548 20.7534 26.9907 20.8025 27.0255 20.8516C27.0602 20.8995 27.0939 20.9441 27.1253 20.9863H26.8326L26.43 20.4383H25.313V20.9863H25.082V19.4908H26.5702C26.6688 19.4908 26.7586 19.517 26.8371 19.5684C26.9032 19.6107 26.9559 19.6655 26.9963 19.7351C27.0356 19.8047 27.0557 19.8812 27.0557 19.9623C27.0557 20.0285 27.0434 20.0901 27.0176 20.1461C26.9918 20.2032 26.9559 20.2534 26.91 20.2979V20.2956L26.9088 20.2968ZM25.313 20.1997H26.5758C26.6083 20.1997 26.6397 20.194 26.67 20.1815C26.7002 20.1689 26.7272 20.1518 26.7496 20.1312C26.772 20.1095 26.79 20.0844 26.8034 20.0559C26.8169 20.0273 26.8236 19.9965 26.8236 19.9634C26.8236 19.9303 26.8169 19.8995 26.8023 19.8709C26.7877 19.8424 26.7698 19.8173 26.7462 19.7956C26.7227 19.7739 26.6958 19.7568 26.6655 19.7454C26.6352 19.7339 26.6027 19.7271 26.569 19.7271H25.3119V20.202L25.313 20.1997Z" fill="white"/>
<path d="M27.7183 19.8367C27.6847 19.8721 27.6577 19.9132 27.6376 19.96C27.6174 20.0057 27.6084 20.0559 27.6084 20.1096V20.1199H29.1975V20.3573H27.6084V20.3676C27.6084 20.419 27.6185 20.468 27.6376 20.5149C27.6577 20.5605 27.6847 20.6016 27.7194 20.6359C27.7542 20.6701 27.7946 20.6975 27.8405 20.7181C27.8865 20.7386 27.9347 20.7477 27.9852 20.7477H29.1975V20.9852H27.9852C27.9 20.9852 27.8215 20.9692 27.7463 20.9361C27.6723 20.903 27.6073 20.8585 27.5523 20.8025C27.4974 20.7466 27.4536 20.6804 27.4222 20.605C27.3908 20.5297 27.374 20.4498 27.374 20.3642V20.1096C27.374 20.0228 27.3908 19.9429 27.4234 19.8676C27.4559 19.7934 27.4996 19.7271 27.5546 19.6712C27.6095 19.6153 27.6746 19.5707 27.7486 19.5388C27.8226 19.5068 27.9011 19.4897 27.9852 19.4897H29.1975V19.7249H27.9852C27.9314 19.7249 27.882 19.7351 27.8372 19.7545C27.7923 19.7751 27.7519 19.8025 27.7183 19.8367Z" fill="white"/>
<path d="M29.6 20.9852V20.7477H30.9671C30.994 20.7477 31.0186 20.7431 31.0422 20.7329C31.0657 20.7226 31.0859 20.7089 31.1027 20.6906C31.1196 20.6724 31.133 20.6518 31.1431 20.6278C31.1532 20.6039 31.1577 20.5788 31.1577 20.5514C31.1577 20.4966 31.1398 20.4497 31.1027 20.4121C31.0657 20.3744 31.0209 20.355 30.9671 20.355H29.9499C29.8916 20.355 29.8378 20.3436 29.7862 20.3219C29.7346 20.3002 29.6898 20.2682 29.6505 20.2294C29.6113 20.1906 29.581 20.1438 29.5585 20.0913C29.5361 20.0388 29.5249 19.9828 29.5249 19.9223C29.5249 19.8618 29.5361 19.8059 29.5574 19.7534C29.5787 19.7008 29.6101 19.6552 29.6483 19.6152C29.6864 19.5753 29.7324 19.5444 29.784 19.5216C29.8355 19.4988 29.8905 19.4874 29.9499 19.4874H31.3147V19.7225H29.9499C29.895 19.7225 29.8501 19.7419 29.8154 19.7796C29.7806 19.8173 29.7615 19.863 29.757 19.9166C29.7615 19.9748 29.7817 20.0228 29.8176 20.0616C29.8535 20.1004 29.8983 20.1198 29.9499 20.1198H30.9671C31.0254 20.1198 31.0792 20.1312 31.1308 20.1541C31.1824 20.1769 31.2272 20.2077 31.2654 20.2465C31.3035 20.2854 31.3338 20.331 31.3562 20.3835C31.3786 20.436 31.3898 20.492 31.3898 20.5502C31.3898 20.6084 31.3786 20.6678 31.3573 20.7203C31.3349 20.774 31.3057 20.8196 31.2676 20.8584C31.2295 20.8973 31.1846 20.9281 31.133 20.9509C31.0814 20.9737 31.0265 20.9852 30.9671 20.9852H29.6Z" fill="white"/>
<path d="M33.3348 19.7249H32.5419V20.9852H32.3109V19.7249H31.5181V19.4897H33.3348V19.7249Z" fill="white"/>
<path d="M34.1418 20.9852C34.0566 20.9852 33.9769 20.9692 33.9029 20.9361C33.8289 20.9041 33.7639 20.8596 33.7089 20.8037C33.654 20.7477 33.6102 20.6815 33.5788 20.6062C33.5474 20.5308 33.5317 20.4498 33.5317 20.363V20.1084C33.5317 20.0239 33.5474 19.9429 33.5788 19.8675C33.6102 19.7922 33.654 19.726 33.7089 19.67C33.7639 19.6141 33.8289 19.5696 33.9029 19.5376C33.9769 19.5056 34.0566 19.4885 34.1418 19.4885H35.1713C35.2565 19.4885 35.3361 19.5045 35.4101 19.5376C35.4841 19.5696 35.5492 19.6141 35.6041 19.67C35.6591 19.726 35.7028 19.7922 35.7342 19.8675C35.7656 19.9429 35.7824 20.0228 35.7824 20.1084V20.363C35.7824 20.4498 35.7667 20.5297 35.7342 20.6062C35.7028 20.6815 35.6591 20.7477 35.6041 20.8037C35.5492 20.8596 35.4841 20.9041 35.4101 20.9361C35.3361 20.9681 35.2565 20.9852 35.1713 20.9852H34.1418ZM33.765 20.363C33.765 20.4167 33.7751 20.4657 33.7942 20.5126C33.8132 20.5594 33.8413 20.6005 33.8749 20.6347C33.9085 20.669 33.9489 20.6964 33.9949 20.7169C34.0409 20.7375 34.0902 20.7466 34.1418 20.7466H35.1713C35.224 20.7466 35.2722 20.7363 35.3182 20.7169C35.3641 20.6964 35.4045 20.669 35.4393 20.6347C35.474 20.6005 35.501 20.5594 35.5211 20.5126C35.5413 20.4657 35.5503 20.4155 35.5503 20.363V20.1084C35.5503 20.057 35.5402 20.0068 35.5211 19.96C35.501 19.9132 35.474 19.8721 35.4393 19.8367C35.4045 19.8013 35.3641 19.7739 35.3182 19.7534C35.2722 19.7328 35.2228 19.7237 35.1713 19.7237H34.1418C34.0891 19.7237 34.0409 19.734 33.9949 19.7534C33.9489 19.7739 33.9085 19.8013 33.8749 19.8367C33.8413 19.8721 33.8143 19.9132 33.7942 19.96C33.774 20.0068 33.765 20.0559 33.765 20.1084V20.363Z" fill="white"/>
<path d="M37.9796 20.2968C37.9527 20.3253 37.9213 20.3493 37.8866 20.3687C37.8507 20.3881 37.8148 20.4041 37.7767 20.4155C37.8092 20.46 37.8428 20.5068 37.8798 20.5559C37.9157 20.605 37.9527 20.6541 37.9886 20.7043C38.0256 20.7534 38.0615 20.8025 38.0963 20.8516C38.131 20.8995 38.1647 20.9441 38.1961 20.9863H37.9034L37.5008 20.4383H36.3838V20.9863H36.1528V19.4908H37.641C37.7396 19.4908 37.8294 19.517 37.9079 19.5684C37.974 19.6107 38.0267 19.6655 38.0671 19.7351C38.1064 19.8047 38.1265 19.8812 38.1265 19.9623C38.1265 20.0285 38.1142 20.0901 38.0884 20.1461C38.0626 20.2032 38.0267 20.2534 37.9808 20.2979V20.2956L37.9796 20.2968ZM36.3838 20.1997H37.6466C37.6791 20.1997 37.7105 20.194 37.7408 20.1815C37.771 20.1689 37.798 20.1518 37.8204 20.1312C37.8428 20.1095 37.8608 20.0844 37.8742 20.0559C37.8877 20.0273 37.8944 19.9965 37.8944 19.9634C37.8944 19.9303 37.8877 19.8995 37.8731 19.8709C37.8585 19.8424 37.8406 19.8173 37.817 19.7956C37.7935 19.7739 37.7666 19.7568 37.7363 19.7454C37.706 19.7328 37.6735 19.7271 37.6398 19.7271H36.3827V20.202L36.3838 20.1997Z" fill="white"/>
<path d="M40.1607 19.6712C40.2157 19.7283 40.2594 19.7945 40.292 19.8698C40.3245 19.9452 40.3413 20.024 40.3413 20.1096V20.9852H40.108V20.3356H38.6749V20.9852H38.4438V20.1096C38.4438 20.0228 38.4595 19.9429 38.4921 19.8676C38.5246 19.7934 38.5683 19.7271 38.6233 19.6712C38.6782 19.6153 38.7421 19.5707 38.8162 19.5388C38.8891 19.5068 38.9676 19.4897 39.0517 19.4897H39.7301C39.8131 19.4897 39.8916 19.5057 39.9656 19.5388C40.0385 19.5707 40.1036 19.6153 40.1607 19.6712ZM39.0483 19.7249C38.999 19.7249 38.9519 19.7351 38.907 19.7545C38.8621 19.7751 38.8229 19.8013 38.7892 19.8356C38.7556 19.8698 38.7287 19.9087 38.7074 19.9543C38.6861 20 38.676 20.0479 38.6749 20.0982H40.108C40.1069 20.0479 40.0957 20 40.0755 19.9543C40.0553 19.9087 40.0284 19.8698 39.9937 19.8356C39.96 19.8013 39.9208 19.7751 39.8748 19.7545C39.8299 19.734 39.7817 19.7249 39.7301 19.7249H39.0472H39.0483Z" fill="white"/>
<path d="M42.3094 19.7249H41.5165V20.9852H41.2855V19.7249H40.4927V19.4897H42.3094V19.7249Z" fill="white"/>
<path d="M42.6089 20.9852V19.4897H42.8421V20.9852H42.6089Z" fill="white"/>
<path d="M43.802 20.9852C43.7167 20.9852 43.6371 20.9692 43.5631 20.9361C43.4891 20.9041 43.424 20.8596 43.3691 20.8037C43.3141 20.7477 43.2704 20.6815 43.239 20.6062C43.2076 20.5308 43.1919 20.4498 43.1919 20.363V20.1084C43.1919 20.0239 43.2076 19.9429 43.239 19.8675C43.2704 19.7922 43.3141 19.726 43.3691 19.67C43.424 19.6141 43.4891 19.5696 43.5631 19.5376C43.6371 19.5056 43.7167 19.4885 43.802 19.4885H44.8314C44.9166 19.4885 44.9963 19.5045 45.0703 19.5376C45.1443 19.5696 45.2093 19.6141 45.2643 19.67C45.3192 19.726 45.363 19.7922 45.3944 19.8675C45.4258 19.9429 45.4426 20.0228 45.4426 20.1084V20.363C45.4426 20.4498 45.4269 20.5297 45.3944 20.6062C45.363 20.6815 45.3192 20.7477 45.2643 20.8037C45.2093 20.8596 45.1443 20.9041 45.0703 20.9361C44.9963 20.9681 44.9166 20.9852 44.8314 20.9852H43.802ZM43.424 20.363C43.424 20.4167 43.4341 20.4657 43.4532 20.5126C43.4723 20.5594 43.5003 20.6005 43.5339 20.6347C43.5676 20.669 43.6079 20.6964 43.6539 20.7169C43.6999 20.7375 43.7492 20.7466 43.8008 20.7466H44.8303C44.883 20.7466 44.9312 20.7363 44.9772 20.7169C45.0232 20.6964 45.0636 20.669 45.0983 20.6347C45.1331 20.6005 45.16 20.5594 45.1802 20.5126C45.2004 20.4657 45.2093 20.4155 45.2093 20.363V20.1084C45.2093 20.057 45.1992 20.0068 45.1802 19.96C45.16 19.9132 45.1331 19.8721 45.0983 19.8367C45.0636 19.8013 45.0232 19.7739 44.9772 19.7534C44.9312 19.7328 44.8819 19.7237 44.8303 19.7237H43.8008C43.7481 19.7237 43.6999 19.734 43.6539 19.7534C43.6079 19.7739 43.5676 19.8013 43.5339 19.8367C43.5003 19.8721 43.4734 19.9132 43.4532 19.96C43.433 20.0068 43.424 20.0559 43.424 20.1084V20.363Z" fill="white"/>
<path d="M47.2815 20.9681C47.2614 20.9601 47.2434 20.9486 47.2266 20.9361C47.2098 20.9235 47.1918 20.9064 47.1739 20.8847C47.0988 20.7968 47.0214 20.7043 46.9395 20.6062C46.8588 20.508 46.7769 20.4098 46.6939 20.3105C46.6109 20.2112 46.5291 20.113 46.4483 20.016C46.3676 19.9189 46.2902 19.8253 46.2162 19.7363C46.1994 19.7191 46.1781 19.71 46.1523 19.71C46.1298 19.71 46.1097 19.7157 46.0917 19.7271C46.0738 19.7385 46.0648 19.7568 46.0626 19.7808V20.984H45.8315V19.7625L45.8338 19.7557C45.8371 19.7111 45.8472 19.6712 45.8663 19.6347C45.8854 19.5981 45.91 19.5684 45.9403 19.5445C45.9706 19.5205 46.0042 19.5011 46.0424 19.4885C46.0794 19.476 46.1175 19.4691 46.1556 19.4691C46.2005 19.4691 46.2442 19.4782 46.2857 19.4965C46.3272 19.5148 46.3642 19.5445 46.3945 19.5856C46.5537 19.7774 46.713 19.968 46.8711 20.1575C47.0292 20.347 47.1896 20.5388 47.35 20.7317C47.3567 20.7386 47.3668 20.7454 47.3791 20.7512C47.3914 20.7569 47.4027 20.7603 47.4139 20.7603C47.4341 20.7603 47.452 20.7534 47.4688 20.7409C47.4856 20.7283 47.4969 20.7112 47.5002 20.6895V19.4851H47.7335V20.7066C47.729 20.7512 47.7167 20.7911 47.6976 20.8276C47.6785 20.8642 47.6539 20.895 47.6247 20.9201C47.5955 20.9464 47.563 20.9658 47.526 20.9795C47.489 20.9932 47.4509 21 47.4116 21C47.3903 21 47.3679 20.9977 47.3443 20.992C47.3208 20.9875 47.2995 20.9783 47.2793 20.9669L47.2815 20.9681Z" fill="white"/>
<path d="M26.7853 3.52191L18.6079 9.68092H19.8202L20.7947 8.94686L26.9995 4.27309L32.5304 8.43884L34.18 9.68092H35.3923L26.9995 3.3598L26.7853 3.52191Z" fill="white"/>
<path d="M23.6757 2.50356L26.6722 0.24773L26.9996 0L39.8534 9.68089H37.9974L35.4709 7.77782L27.0008 1.39848L17.4955 8.5564L16.0029 9.68089H14.147L22.8436 3.13031L23.6757 2.50356Z" fill="white"/>
<path d="M26.8672 7.03119H26.0396V7.8737H26.8672V7.03119Z" fill="white"/>
<path d="M26.8672 8.14539H26.0396V8.9879H26.8672V8.14539Z" fill="white"/>
<path d="M27.9604 7.03119H27.1328V7.8737H27.9604V7.03119Z" fill="white"/>
<path d="M27.9604 8.14539H27.1328V8.9879H27.9604V8.14539Z" fill="white"/>
<path d="M54.0001 20.1655H49.751V20.3047H54.0001V20.1655Z" fill="white"/>
<path d="M4.24908 20.1655H0V20.3047H4.24908V20.1655Z" fill="white"/>
</svg>
